<svg xmlns="http://www.w3.org/2000/svg" viewBox="0 0 128 128"><rect width="128" height="128" rx="28" fill="#0B0C0D"/><g transform="translate(22 10) scale(0.88)"><path d="M48 4 C66 4 80 20 80 41 C80 60 66 74 53 79 L48 83 L43 79 C30 74 16 60 16 41 C16 20 30 4 48 4 Z" fill="#FF7A45"/><path d="M31 21 C27 27 25 33 25 40" fill="none" stroke="#FFFFFF" stroke-width="5.5" stroke-linecap="round" opacity="0.55"/><path d="M41 76 L55 76 L48 91 Z" fill="#FF7A45"/><path d="M48 90 C49 104 56 111 68 113 C78 115 84 115 90 116" fill="none" stroke="#FF7A45" stroke-width="6" stroke-linecap="round"/></g></svg>
